<?xml version="1.0" encoding="UTF-8" standalone="no"?>
<!DOCTYPE svg PUBLIC "-//W3C//DTD SVG 1.1//EN" "http://www.w3.org/Graphics/SVG/1.1/DTD/svg11.dtd">
<svg version="1.1" xmlns="http://www.w3.org/2000/svg" xmlns:xlink="http://www.w3.org/1999/xlink" preserveAspectRatio="xMidYMid meet" viewBox="0 0 640 640" width="128" height="128"><defs><path d="M88.76 359.51C84.9 392.84 82.71 426.31 81.28 459.81C103.63 437.48 282.5 258.79 304.86 236.45C312.68 228.64 325.36 228.64 333.18 236.45C340.99 244.26 340.99 256.93 333.18 264.74C300.74 297.14 41.24 556.38 8.8 588.79C-2.93 600.5 -2.93 619.5 8.8 631.21C20.53 642.92 39.54 642.92 51.27 631.21C58.42 624.08 115.55 567.01 122.69 559.88C175.3 559.7 227.88 556.71 280.14 550.67C346.99 543.88 401.41 517.59 445.86 480C437.45 480 395.39 480 319.68 480C429.77 443.34 490.93 422.97 503.16 418.9C517.22 400.29 529.88 380.51 541.22 360C534.46 360 500.65 360 439.8 360C519.7 320.09 564.1 297.92 572.98 293.49C625.36 166.08 637.74 32.83 640 0C575.28 4.45 120.55 47.75 88.76 359.51Z" id="a14GzREeFk"></path></defs><g><g><g><use xlink:href="#a14GzREeFk" opacity="1" fill="#62d1bd" fill-opacity="1"></use><g><use xlink:href="#a14GzREeFk" opacity="1" fill-opacity="0" stroke="#000000" stroke-width="1" stroke-opacity="0"></use></g></g></g></g></svg>